<?xml version="1.0" encoding="UTF-8" standalone="no"?>
<!-- Created with Inkscape (http://www.inkscape.org/) -->

<svg
   width="25.623455mm"
   height="38.254131mm"
   viewBox="0 0 25.623455 38.254131"
   version="1.1"
   id="svg11467"
   xmlns="http://www.w3.org/2000/svg"
   xmlns:svg="http://www.w3.org/2000/svg">
  <defs
     id="defs11464" />
  <g
     id="layer1"
     transform="translate(-77.651355,-21.767233)">
    <path
       style="fill:#42baae;fill-opacity:1;fill-rule:nonzero;stroke:none;stroke-width:0.352778"
       d="m 94.123257,56.556976 c -0.901234,0.315571 -2.033985,-0.348643 -2.63481,-1.543402 -0.228754,-0.454756 -0.410655,-0.939825 -0.525032,-1.400087 -0.228754,-0.924666 0.111621,-1.898939 0.869542,-2.479093 l 0.413413,-0.319705 c 0.727604,1.879646 1.462098,3.755154 2.217265,5.622396 z m -3.631131,-10.321508 1.069358,2.807067 -0.839225,0.646299 c -1.332563,1.022502 -1.933388,2.735404 -1.528245,4.364246 0.146072,0.588422 0.377583,1.204404 0.665592,1.780427 1.026639,2.042253 3.468525,2.932466 5.261352,2.305457 l 0.73725,1.882401 7.416602,-2.669261 -2.87596,-14.791861 z m 0,0"
       id="path4325" />
    <path
       style="fill:#171717;fill-opacity:1;fill-rule:nonzero;stroke:none;stroke-width:0.352778"
       d="m 93.798042,50.522547 2.677527,6.11022 c 0.166744,0.460267 0.658703,0.715202 1.129993,0.58429 l 2.412948,-0.664215 c 0.45888,-0.126781 0.74965,-0.577399 0.67661,-1.047309 l -1.043172,-8.605848 z m 0,0"
       id="path4327" />
    <path
       style="fill:#d9b519;fill-opacity:1;fill-rule:nonzero;stroke:none;stroke-width:0.352778"
       d="m 79.000666,21.889671 c 0.39274,0.08544 0.704177,0.190168 1.019748,0.279738 0.04823,0.01517 0.128157,-0.03306 0.188791,-0.0096 0.239779,0.09095 0.51263,0.144695 0.701422,0.329349 0.09922,0.104733 0.206705,0.190172 0.321083,0.257694 0.110243,0.07579 0.227376,0.136426 0.354155,0.179148 0.241157,0.08268 0.42168,0.253559 0.629764,0.38585 0.06477,0.04961 0.137803,0.09233 0.148828,0.213593 0.0096,0.08957 0.09233,0.170879 0.232888,0.150209 0.02756,-0.0041 0.03858,0.03996 0.04961,0.06615 0.01378,0.02893 0.0041,0.08681 0.02894,0.09233 0.285254,0.05788 0.37207,0.322463 0.555349,0.502987 0.04548,0.04685 0.04548,0.129533 0.168121,0.112998 0.03169,-0.0055 0.07028,0.04547 0.05788,0.07579 -0.03169,0.07855 -0.01654,0.128157 0.01516,0.179144 0.135048,0.223245 0.249426,0.460265 0.336242,0.705555 0.177767,0.07166 0.165364,0.235645 0.197059,0.369316 0.02618,0.100598 0.0014,0.212217 -0.0083,0.31695 -0.0055,0.104729 0.09784,0.203948 -0.0124,0.316946 -0.01929,0.01655 0.02618,0.05099 0.02894,0.07993 0.02067,0.125402 0.07855,0.257693 0.03169,0.380337 -0.02343,0.06201 -0.0441,0.122646 -0.04823,0.184658 -0.02205,0.78686 -0.248047,1.577855 -0.698665,2.240689 -0.03721,0.05926 -0.08957,0.101974 -0.07028,0.210841 0.01654,0.08819 -0.06752,0.192924 -0.155718,0.191548 -0.136426,0 -0.166743,0.08544 -0.232889,0.143316 -0.124023,0.101974 -0.241156,0.216351 -0.381717,0.297656 -0.08544,0.0441 -0.143315,0.169499 -0.286631,0.07717 -0.0124,-0.0096 -0.03859,0.0041 -0.04272,0.02205 -0.03307,0.175009 -0.184657,0.104729 -0.285253,0.124022 -0.07855,0.0083 -0.144695,0.03721 -0.214974,0.119888 -0.0689,0.08268 -0.220486,0.118512 -0.304547,0.04823 -0.108865,-0.08406 -0.197059,-0.06201 -0.293522,-0.06752 -0.55535,-0.05926 -1.079004,-0.316949 -1.456586,-0.738628 -0.170873,-0.190186 -0.424432,-0.392758 -0.439591,-0.701439 0.0014,-0.0689 -0.07304,-0.140557 0.02894,-0.210837 0.02067,-0.01379 0.0069,-0.06615 -0.01929,-0.08682 -0.09371,-0.07855 -0.05236,-0.16123 -0.03858,-0.249424 0.07993,-0.409276 0.323839,-0.72347 0.525033,-1.050065 0.163986,-0.261828 0.432704,-0.412033 0.695909,-0.551215 0.09095,-0.04685 0.208084,-0.01792 0.304546,-0.03168 0.09371,-0.01242 0.183279,-0.04134 0.27423,-0.06477 0.05512,-0.01242 0.112999,0.0041 0.158474,-0.08131 0.02343,-0.04547 0.104731,-0.0689 0.14056,-0.03447 0.118512,0.108863 0.228755,0.05926 0.341754,0.06477 0.316948,0.01379 0.629763,0.05375 0.928797,0.136426 0.07304,0.0193 0.172255,-0.01517 0.201194,0.124023 0.0041,0.0193 0.0565,-0.0055 0.08682,-0.0083 0.03169,-0.0028 0.07717,-0.0248 0.09233,-0.0028 0.139182,0.209461 0.355534,0.203951 0.540191,0.290766 0.436838,0.214976 0.866786,0.454752 1.233344,0.775836 0.09784,0.09233 0.261828,0.08544 0.355534,0.181903 0.08819,0.09508 0.194303,0.170875 0.275607,0.272849 0.05788,0.07166 0.166743,0.104732 0.129536,0.250804 -0.0096,0.03859 0.03169,0.08819 0.07441,0.08819 0.158475,-0.0014 0.183279,0.124023 0.263205,0.197058 0.09508,0.09509 0.111622,0.245294 0.292145,0.279742 0.04823,0.01101 0.02618,0.106109 0.05099,0.154341 0.04134,0.08406 0.08682,0.163988 0.135048,0.242534 0.0248,0.03859 0.08682,0.05375 0.111621,0.09095 0.192925,0.289388 0.367936,0.598068 0.487826,0.930173 0.129535,0.336243 0.188791,0.694531 0.239778,1.048689 0.04547,0.355532 0.06752,0.7152 0.03721,1.072112 -0.0124,0.130916 0.07028,0.288012 -0.108865,0.392741 0.08544,0.132291 0.0069,0.234269 -0.122645,0.318329 -0.01791,0.01242 0.0248,0.05788 0.03169,0.08819 0.02618,0.0937 0.177767,0.216352 -0.02618,0.272853 -0.0069,0.0014 -0.0014,0.01517 -0.0055,0.02205 -0.04134,0.07304 0.122645,0.17501 -0.01378,0.248045 -0.08682,0.0441 -0.0813,0.154341 -0.117134,0.235645 -0.03445,0.08268 -0.07166,0.166744 -0.08544,0.256315 -0.01378,0.09371 -0.136426,0.151585 -0.03721,0.286631 0.01516,0.02205 -0.101975,0.04685 -0.110243,0.08682 -0.05788,0.203948 -0.260449,0.333484 -0.219108,0.589799 0.0096,0.06063 -0.03032,0.125402 -0.08406,0.150205 -0.20395,0.08544 -0.232889,0.261829 -0.312815,0.435462 -0.09233,0.232886 -0.256315,0.454752 -0.547081,0.505739 -0.06201,0.01101 -0.09922,0.0041 -0.09095,0.08544 0.0055,0.05374 -0.0441,0.08819 -0.07993,0.119888 -0.389985,0.362426 -0.857139,0.675238 -1.411111,0.828202 -0.152962,0.04272 -0.315571,-0.07028 -0.461643,-0.0041 -0.06477,0.02205 -0.137804,-0.03859 -0.195681,0.07166 -0.0083,0.01517 -0.03721,0.02342 -0.05099,0.01379 -0.183279,-0.139182 -0.406521,0.0096 -0.585666,-0.111623 -0.03583,-0.02342 -0.06339,-0.06477 -0.09508,-0.0937 -0.03307,-0.02893 -0.06477,-0.07579 -0.103353,-0.07579 -0.166743,0.0069 -0.308681,-0.0689 -0.425814,-0.170875 -0.118511,-0.103353 -0.214974,-0.228755 -0.325217,-0.343133 -0.07993,-0.0813 -0.07166,-0.216351 -0.242535,-0.24529 -0.0248,-0.0055 -0.0441,-0.05512 -0.03583,-0.08268 0.03583,-0.122643 0.01929,-0.219106 -0.0069,-0.318325 -0.02756,-0.09922 -0.05512,-0.203951 -0.03445,-0.305925 0.02618,-0.09784 -0.04823,-0.228756 0.09922,-0.290767 0.02067,-0.0069 0.01654,-0.04823 0.01516,-0.07441 -0.0055,-0.0441 -0.03583,-0.09922 -0.02067,-0.140561 0.04685,-0.111623 0.172254,-0.188793 0.187413,-0.294901 0.0248,-0.135047 0.118511,-0.219107 0.201194,-0.300412 0.04685,-0.05374 0.137803,-0.04823 0.199815,-0.07442 0.0565,-0.02618 0.09784,-0.07855 0.151584,-0.107487 0.07579,-0.0441 0.14056,-0.118509 0.228755,-0.122644 0.08819,-0.0055 0.09095,-0.173633 0.216352,-0.114377 0.09233,0.04685 0.119889,-0.110243 0.194303,-0.147451 0.03583,-0.01792 0.0813,-0.01379 0.122646,-0.01101 0.03307,0.0028 0.07166,0.03858 0.09646,0.02755 0.05926,-0.02205 0.122645,-0.0083 0.176389,-0.08268 0.03721,-0.05237 0.132292,0.0096 0.198437,0.0096 0.06615,0.0014 0.130914,-0.0193 0.195682,-0.02343 0.06615,-0.0069 0.137804,0.01379 0.195681,-0.02342 0.253559,-0.159851 0.537435,-0.0689 0.799262,-0.05926 0.06477,0.0041 0.146073,-0.03583 0.188792,0.09233 0.0069,0.02342 0.0441,0.02893 0.06477,0.0193 0.261827,-0.137806 0.497472,0.02067 0.745519,0.0248 0.177767,-0.0014 0.362424,-0.03306 0.536057,0.01517 0.169499,0.05099 0.334863,0.132291 0.51263,0.114377 0.14745,-0.01101 0.2949,-0.0248 0.417546,0.04547 0.117133,0.06891 0.314192,-0.125398 0.377582,0.110243 0.129536,0.04272 0.263205,0.07579 0.389985,0.126782 0.103353,0.04823 0.231511,0.03996 0.293522,0.191547 0.02343,0.0565 0.09646,0.08131 0.152962,0.05926 0.179145,-0.06614 0.299035,0.01101 0.403766,0.132292 0.02618,0.02893 0.08957,-0.0096 0.126779,0.0041 0.111621,0.04272 0.225998,0.08268 0.327973,0.147447 0.304547,0.187413 0.672483,0.238403 0.993565,0.398254 0.0565,0.03168 0.166743,-0.01517 0.205328,0.03583 0.227377,0.31557 0.624252,0.359668 0.86403,0.63941 0.179145,0.197061 0.384473,0.350022 0.589801,0.507118 0.206705,0.151585 0.425813,0.290766 0.607714,0.474045 0.04961,0.04686 0.03583,0.170878 0.07993,0.168123 0.135046,-0.0069 0.169499,0.125399 0.276983,0.126778 0.197062,0.0028 0.243914,0.170878 0.372071,0.248049 0.09371,0.0565 0.118512,0.195678 0.289387,0.162605 0.0248,-0.0041 0.04961,0.02342 0.05099,0.04823 0.02067,0.202572 0.263208,0.183279 0.327974,0.340378 0.16123,0.05236 0.274232,0.155716 0.376206,0.268714 0.09508,0.119892 0.179144,0.249428 0.289387,0.354157 0.03306,0.03168 0.08682,0.04272 0.130913,0.06477 0.02205,0.01101 0.05512,0.01792 0.05788,0.03997 0.04823,0.314191 0.30868,0.471286 0.442348,0.720711 0.04134,0.08406 0.05926,0.180523 0.09371,0.268718 0.03583,0.08682 0.122643,0.144695 0.08131,0.275607 -0.01379,0.03996 0.02893,0.07579 0.06201,0.100598 0.17501,0.141937 0.0689,0.392741 -0.2384,0.578775 -0.110243,0.0689 -0.139181,0.03721 -0.203951,0.02618 -0.125402,-0.02205 -0.220487,-0.05788 -0.267339,-0.147451 -0.03583,-0.0689 -0.04823,-0.165364 -0.190168,-0.152961 -0.02342,0.0014 -0.03859,-0.0303 -0.03583,-0.05512 0.02342,-0.177768 -0.143316,-0.24529 -0.155716,-0.392741 -0.01101,-0.112998 -0.07717,-0.176388 -0.112998,-0.265962 -0.0303,-0.07579 -0.130916,-0.100595 -0.0882,-0.234266 0.01379,-0.04548 -0.114377,-0.0441 -0.152964,-0.08268 -0.09233,-0.09233 -0.180524,-0.188793 -0.250804,-0.299036 -0.101974,-0.170878 -0.261825,-0.292146 -0.420299,-0.410654 -0.161231,-0.115757 -0.31006,-0.241159 -0.438218,-0.389986 -0.316949,-0.07166 -0.413412,-0.388606 -0.682129,-0.504363 -0.316949,-0.144695 -0.536057,-0.401009 -0.830957,-0.56086 -0.05926,-0.03447 -0.100597,-0.07028 -0.125401,-0.140561 -0.01516,-0.0441 -0.03169,-0.09371 -0.06339,-0.119888 -0.124024,-0.09922 -0.26734,-0.172257 -0.389985,-0.272852 -0.06615,-0.05375 -0.190169,-0.03859 -0.170877,-0.206707 0.0028,-0.02342 -0.03032,-0.0441 -0.05512,-0.03721 -0.19706,0.05099 -0.279742,-0.100595 -0.41479,-0.159851 -0.05099,-0.02205 -0.09371,-0.05374 -0.118511,-0.132291 -0.02756,-0.08406 -0.119889,-0.130916 -0.205328,-0.118513 -0.06615,0.01242 -0.107487,-0.0083 -0.157096,-0.02067 -0.205328,-0.04823 -0.325217,-0.283877 -0.58291,-0.210841 -0.0248,-0.190169 -0.169499,-0.194303 -0.28112,-0.203952 -0.42857,-0.03996 -0.768945,-0.278363 -1.161686,-0.398251 -0.09508,-0.0248 -0.168121,-0.118512 -0.259072,-0.16123 -0.09646,-0.04548 -0.199815,-0.07303 -0.30179,-0.09646 -0.05512,-0.01379 -0.103353,-0.08544 -0.177767,0.01517 -0.0041,0.0069 -0.01654,0.0096 -0.02067,0.0055 -0.05237,-0.03305 -0.100597,-0.08957 -0.159852,-0.09646 -0.05374,-0.0055 -0.11989,0.05925 -0.177767,0.06615 -0.06752,0.0096 -0.132292,-0.0041 -0.195682,-0.01792 -0.06201,-0.01379 -0.132291,-0.0041 -0.158474,-0.118508 -0.07717,0.112998 -0.13367,0.03583 -0.19706,0.03447 -0.06063,-0.0014 -0.118511,-0.02067 -0.176389,-0.03168 l -0.198437,-0.03721 c -0.06615,-0.01242 -0.129536,-0.03583 -0.197059,-0.03583 -0.09233,-0.0014 -0.188792,0.03721 -0.28112,0.03858 -0.09646,0.0014 -0.192925,-0.01101 -0.285254,-0.03583 -0.115755,-0.0303 -0.237023,-0.09233 -0.344509,-0.119888 -0.0441,-0.01242 -0.08682,0.01655 -0.132292,0.05926 -0.06201,0.05925 -0.132292,0.191544 -0.208084,0.01517 -0.01516,-0.03447 -0.06752,-0.02205 -0.09646,0.0014 -0.21773,0.191547 -0.464399,0.06752 -0.675238,0.172254 -0.151585,-0.100595 -0.248047,0.01655 -0.341754,0.09371 -0.141938,0.118509 -0.257693,0.212217 -0.409277,0.235645 -0.163987,0.0372 -0.191547,0.16812 -0.250803,0.26596 -0.02205,0.0303 0.01929,0.07028 -0.09922,0.08819 -0.02756,0.0041 -0.02343,0.03583 -0.0083,0.05375 0.121267,0.112998 0.09646,0.168119 0.0689,0.312811 -0.01654,0.07579 0.07304,0.117137 0.150206,0.14194 0.117134,0.03583 0.165365,0.147451 0.270096,0.214973 -0.03583,0.157099 0.08406,0.04686 0.132291,0 0.06752,-0.05926 0.09922,-0.06615 0.13367,-0.05236 0.04272,0.01379 0.08268,0.0565 0.14745,-0.02893 0.03307,-0.04134 0.07028,-0.02067 0.08544,0.03168 0.02067,0.07304 0.03996,0.0441 0.06615,-0.0028 0.02756,-0.05099 0.06477,0.08544 0.118512,0.07579 0.0565,-0.01242 0.101975,-0.09233 0.180523,0.04823 0.0083,0.01379 0.0248,0.0083 0.03032,-0.0041 0.06477,-0.176389 0.235645,0.0083 0.325217,-0.106108 0.198438,0.0083 0.377583,-0.08957 0.531923,-0.214976 0.157096,-0.125402 0.293522,-0.279742 0.457509,-0.407899 0.130913,-0.110243 0.344509,-0.169499 0.389984,-0.356913 0.09922,-0.374826 0.374827,-0.625626 0.501606,-0.974269 0.03169,-0.07166 -0.0041,-0.180524 0.163987,-0.187414 0.02205,-0.0014 0.03445,-0.03583 0.02343,-0.05788 -0.0813,-0.155716 -0.01378,-0.24529 0.115755,-0.32797 0.03032,-0.02067 0.04547,-0.07166 0.01378,-0.09922 -0.08544,-0.07717 -0.03169,-0.118512 -0.01516,-0.168123 0.01929,-0.05926 0.130914,-0.118509 0.08682,-0.16812 -0.09233,-0.101974 0.03721,-0.118512 0.07028,-0.176389 0.01929,-0.03447 0.0028,-0.07993 -0.0083,-0.121267 -0.0055,-0.02067 -0.04823,-0.05099 -0.03445,-0.05926 0.141938,-0.103354 -0.01791,-0.248046 0.03996,-0.362423 0.01378,-0.0248 0.01378,-0.05237 0.03032,-0.07717 0.09922,-0.136427 0.139181,-0.209462 0.151584,-0.293522 0.01378,-0.08268 -0.0055,-0.176389 -0.05788,-0.358292 0.181901,-0.114377 -0.100596,-0.212217 0.02618,-0.333484 0.04548,-0.04548 0.02894,-0.122647 -0.01653,-0.166744 -0.192926,-0.190168 -0.114377,-0.429948 -0.219108,-0.631141 -0.02343,-0.03996 0.08406,-0.110243 -0.02894,-0.135046 -0.04272,-0.0096 0.03858,-0.115757 0.01929,-0.16261 -0.03169,-0.06615 0.0014,-0.163985 -0.136426,-0.186034 -0.0565,-0.0096 -0.04134,-0.08544 -0.07166,-0.125402 -0.04134,-0.05237 -0.02756,-0.133671 -0.144694,-0.150205 -0.06339,-0.0096 -0.100597,-0.08268 -0.07993,-0.139182 0.09371,-0.243914 -0.143316,-0.299035 -0.286632,-0.388609 -0.04272,-0.02755 -0.07304,-0.04685 -0.07717,-0.101974 -0.0069,-0.07992 -0.01654,-0.188793 -0.09508,-0.197058 -0.136426,-0.01517 -0.163986,-0.106109 -0.225998,-0.175013 -0.104731,-0.115754 -0.205328,-0.241156 -0.323839,-0.345888 -0.139182,-0.112999 -0.239779,-0.272849 -0.44235,-0.311436 -0.107487,-0.02205 -0.238401,-0.05099 -0.227377,-0.248045 0,-0.02205 -0.08544,0.02755 -0.110243,0.01379 -0.188791,-0.118512 -0.380338,-0.228755 -0.573264,-0.338998 -0.0441,-0.02342 -0.02756,-0.194303 -0.124023,-0.09784 -0.100597,0.101974 -0.04134,-0.166744 -0.146072,-0.02893 -0.01516,0.0193 -0.0565,0 -0.07304,-0.02342 -0.179145,-0.261829 -0.487825,-0.217731 -0.724848,-0.312815 -0.05926,-0.02342 -0.137804,0.02893 -0.163987,-0.114378 -0.168121,0.126781 -0.321083,-0.201193 -0.475423,0.0441 -0.108865,-0.03996 -0.201193,0.09646 -0.318327,-0.05374 -0.01929,-0.02342 -0.04823,0.02067 -0.07028,0 -0.07993,-0.06752 -0.06201,0.183279 -0.16123,0.07717 -0.05926,-0.06201 -0.12678,0.0055 -0.180523,0.02342 -0.05237,0.01517 -0.100597,0.04272 -0.148828,0.0689 -0.05374,0.02893 -0.106109,0.06201 -0.155718,0.09784 -0.04823,0.03447 -0.103353,0.06615 -0.139182,0.115757 -0.07442,0.104729 -0.06201,0.249424 -0.148829,0.31557 -0.0096,0.0069 -0.0028,0.03447 0.01791,0.04961 0.172255,0.129536 0.04961,0.104732 -0.01929,0.115757 -0.05788,0.0041 -0.09095,0.0193 -0.09646,0.04823 -0.01791,0.07855 -0.02205,0.155716 -0.02756,0.227375 -0.01378,0.04823 0.07441,0.07028 -0.05512,0.146072 -0.03445,0.02342 -0.01102,0.06201 0.02343,0.07304 0.166743,0.04134 0.136426,0.163989 0.238401,0.242535 0.03583,0.03583 0.07993,0.07028 0.114377,0.114378 0.03307,0.02893 0.11989,-0.02205 0.101975,0.07579 0.136426,-0.01379 0.22462,0.0193 0.319705,0.05926 0.09233,0.04134 0.187413,0.09095 0.286632,0.09233 0.09922,0.0055 0.191547,-0.0014 0.279741,-0.0069 0.07855,-0.01379 0.183279,-0.02893 0.282498,-0.0689 0.05237,-0.01655 0.07166,-0.101974 0.180523,0.0014 0.02067,0.0193 0.05788,0 0.05374,-0.03168 -0.0096,-0.08406 -0.01378,-0.129537 0.07441,-0.06201 0.01654,0.01242 0.03169,-0.02205 0.03307,-0.04961 0.0041,-0.07579 0.03996,-0.08957 0.110243,-0.0813 0.05512,0.0055 0.112999,-0.01101 0.122645,-0.05926 0.02205,-0.132291 0.03032,-0.241159 0.214974,-0.228755 0.02205,0.0014 -0.03032,-0.08819 -0.0124,-0.103353 0.07304,-0.06201 0.05925,-0.1819 0.205327,-0.201193 0.05926,-0.01101 0.06063,-0.07717 0.09508,-0.114378 0.05926,-0.06615 0.02618,-0.170878 0.101974,-0.234265 0.07855,-0.06615 0.08268,-0.173634 0.111622,-0.264584 0.03307,-0.09095 0.0565,-0.183278 0.0813,-0.276987 0.01929,-0.09508 0.04134,-0.190168 0.05374,-0.286632 0.01791,-0.09646 0.02205,-0.194302 0.03307,-0.290766 0.0014,-0.09784 0.0096,-0.195682 0.0041,-0.293522 0.0014,-0.09784 -0.01103,-0.195682 -0.01516,-0.293521 -0.0055,-0.06753 0,-0.132292 0.04685,-0.210842 0.111621,-0.198437 0.04272,-0.432703 -0.155718,-0.643544 -0.01378,-0.01517 -0.01516,-0.0372 -0.02205,-0.05512 -0.09233,-0.243911 -0.234267,-0.458886 -0.343132,-0.690397 -0.04823,-0.101974 -0.06615,-0.23151 -0.151584,-0.314191 -0.05374,-0.05512 -0.09784,-0.126781 -0.21773,-0.124022 -0.09922,0.0041 -0.07166,-0.154341 -0.219109,-0.117137 -0.05236,0.01379 -0.101974,-0.03996 -0.10473,-0.09232 -0.0041,-0.179148 -0.150207,-0.216355 -0.238401,-0.308681 -0.104731,-0.104732 -0.23151,-0.184658 -0.354156,-0.267342 -0.05926,-0.04134 -0.09784,-0.117133 -0.220486,-0.06339 -0.06063,0.0248 -0.112999,-0.05099 -0.135047,-0.118512 -0.03169,-0.104733 -0.108866,-0.140561 -0.194304,-0.147451 -0.179145,-0.02205 -0.180523,-0.0096 -0.290766,-0.159854 -0.0124,-0.01792 -0.03169,-0.02755 -0.05099,-0.03583 -0.187413,-0.08406 -0.361045,-0.224621 -0.576019,-0.225996 -0.175011,-0.0096 -0.332107,-0.05099 -0.490582,-0.09784 -0.06339,-0.02067 -0.152962,0.02342 -0.170877,-0.128157 -0.0014,-0.02067 -0.03859,-0.02893 -0.05926,-0.01517 -0.170877,0.111623 -0.296279,0.0028 -0.438216,-0.0248 -0.137804,-0.0248 -0.283876,0.07855 -0.416168,0.02755 -0.125402,-0.04686 -0.261827,-0.03859 -0.389985,-0.04961 -0.198437,-0.01517 -0.21084,-0.0937 -0.214974,-0.482315 -0.0028,-0.318325 0.05926,-0.389985 0.248047,-0.443727 0.406521,-0.115753 0.785482,0.05512 1.101053,0.08268"
       id="path4329" />
  </g>
</svg>
