<?xml version="1.0" encoding="UTF-8" standalone="no"?>
<!-- Created with Inkscape (http://www.inkscape.org/) -->

<svg
   width="100.87511mm"
   height="51.414589mm"
   viewBox="0 0 100.87511 51.414589"
   version="1.1"
   id="svg1501"
   xmlns="http://www.w3.org/2000/svg"
   xmlns:svg="http://www.w3.org/2000/svg">
  <defs
     id="defs1498" />
  <g
     id="layer1"
     transform="translate(-24.69987,-65.898345)">
    <g
       id="g1466"
       transform="matrix(0.35277777,0,0,0.35277777,-486.59778,-77.172345)">
      <path
         style="fill:#19aeae;fill-opacity:1;fill-rule:nonzero;stroke:none"
         d="m 1553.1563,498.09766 c 2,0 2.9453,2.10156 1.6914,4.02343 -1.4063,1.97266 -3.5157,2.6875 -4.8399,2.89453 -0.3125,-3.46093 0.9649,-6.91796 3.1485,-6.91796 m 38.8671,16.29296 c -0.207,0.35157 -0.457,0.70313 -0.7187,1.04688 -1.2813,1.71484 -3.0508,3.24609 -3.8516,2.99219 -2.4453,-0.75391 -3.0312,-2.00782 -4.2929,-6.60938 -0.8907,-3.2539 -0.8008,-7.10547 0.2812,-12.10937 0.3867,-1.77344 0.8399,-3.51563 1.3242,-5.36328 0.7032,-2.67579 1.4336,-5.44532 1.9102,-8.30469 0.2656,-1.6211 -0.6445,-3.19922 -2.1797,-3.78516 -1.5313,-0.58594 -3.2656,-0.008 -4.1367,1.38672 -3.6641,5.80078 -5.293,7.3125 -9.7696,6.80078 -1.0234,-0.10937 -2.0351,0.22656 -2.7734,0.9375 -0.7344,0.71094 -1.1211,1.71094 -1.0469,2.73047 0.586,8.24219 -1.3867,18.83594 -5.2578,21.48438 -2.4492,1.67187 -6.8164,0.29296 -8.0703,-1.02735 -0.582,-0.61328 -1.1601,-1.64844 -1.6758,-2.89062 2.543,-0.52344 5.6289,-1.90235 8.3946,-5.17578 1.3359,-1.58594 3.3007,-6.42969 1.7851,-10.4336 -0.9648,-2.55859 -3.1211,-4.20703 -6.0664,-4.64062 -10.7578,-1.58985 -12.1484,6.78906 -12.6719,9.94922 -0.4375,2.625 0.012,6.20703 1.0039,9.59375 0.6875,2.34765 1.6407,4.60156 2.7344,6.36718 0.4727,0.75 0.9649,1.41797 1.4844,1.96485 3.2578,3.44531 11.2891,5.86328 16.9687,1.98437 6.5625,-4.48828 8.2969,-16.12109 8.3516,-23.96484 1.2344,-0.13672 2.3438,-0.42578 3.3594,-0.82031 -0.1406,0.57812 -0.2774,1.16406 -0.4024,1.75 -1.3203,6.1289 -1.3828,11.01562 -0.1914,15.38281 1.2071,4.41797 4.8594,11.30469 11.1367,11.71875 3.2188,0 5.9297,-2.10938 7.7618,-4.10156 1.414,-1.51563 2.3164,-2.96875 2.5273,-3.33594 z m 0,0"
         id="path861" />
      <path
         style="fill:#19aeae;fill-opacity:1;fill-rule:nonzero;stroke:none"
         d="m 1489.9141,512.01172 c -0.5743,-1.83985 -0.9532,-3.88672 -0.1953,-5.5 0.9726,-2.05469 3.4062,-3.21094 4.7773,-2.1836 1.3594,1.02735 -1.4531,5.89063 -4.582,7.6836 m 56.8125,-2.41016 c -3.7071,2.09375 -7.6094,3.9961 -10.1407,4.98828 0.043,-2.36328 0.2305,-5.67187 0.375,-8.15234 0.4141,-7.36328 0.6407,-11.98828 0.035,-14.20703 -0.4219,-1.55078 -0.9453,-3.48047 -2.2188,-5.20313 -1.7539,-2.36328 -4.5664,-3.59765 -7.1679,-3.14843 -2.918,0.5 -5.418,3.05078 -6.6797,6.82812 -0.25,0.73047 -0.5039,1.63281 -0.7578,2.68359 -0.5821,-1.22265 -1.2696,-2.16015 -2.0977,-2.83593 -1.1836,-0.95703 -2.6367,-1.35547 -4.1054,-1.12891 -3.8204,0.58594 -4.793,3.12891 -5.3086,4.49219 l -0.1016,0.26562 c -0.4063,1.04688 -0.6016,2.41016 -0.8906,4.47266 -0.668,4.82422 -1.7969,12.90234 -6.3633,16.16016 -1.5977,1.13671 -3.5469,1.63281 -5.9453,1.5039 3.1953,-3.24219 6.6094,-7.97656 5.9336,-13.01172 -0.2422,-1.84765 -1.2813,-3.5039 -2.9141,-4.65234 -2,-1.40625 -4.7422,-1.95313 -7.1562,-1.4375 -3.2657,0.70312 -6.168,3.19141 -7.7657,6.66016 -1.7109,3.73046 -1.4843,8.74609 0.5899,12.78515 1.7031,3.32031 4.414,5.49219 7.6367,6.1211 5.3789,1.04687 9.9609,0.2539 13.6289,-2.35938 6.9727,-4.98047 8.3594,-14.89453 9.1875,-20.8125 0.055,-0.41406 0.1172,-0.86328 0.1758,-1.28125 1.0976,4.38281 1.5664,12.79688 1.7656,16.44531 0.1524,2.71875 0.2617,4.6836 0.457,5.90625 0.2618,1.69532 1.7227,2.90625 3.3946,2.90625 0.1406,0 0.2695,-0.008 0.4101,-0.0195 1.8399,-0.21484 3.1758,-1.84765 3.0313,-3.69531 -0.4297,-5.41797 2.0117,-21.85938 3.7265,-26.97656 0.4219,-1.26172 1.0352,-2.02735 1.2696,-2.20313 0.125,0.0547 0.3398,0.20703 0.5039,0.4336 0.5039,0.68359 0.8125,1.8125 1.1094,2.90234 0.3359,1.38281 -0.027,7.78125 -0.2696,12.01172 -0.6562,11.61328 -0.8125,14.37109 2.0352,15.72656 1.2461,0.59375 3.8437,1.83594 18.0078,-6.16797 z m 0,0"
         id="path863" />
      <path
         style="fill:#19aeae;fill-opacity:1;fill-rule:nonzero;stroke:none"
         d="m 1597.3789,503.09375 c 0.8281,-1.99219 2.2305,-3.48828 3.5781,-3.80469 1.1641,-0.27734 2.3711,0.73828 2.5,1.92188 0.1446,1.40625 -2.1484,6.07031 -6.8789,5.36328 0.082,-1.20703 0.3438,-2.39063 0.8008,-3.48047 m 16.6445,8.60156 c -0.1914,0.26953 -0.3867,0.53125 -0.5781,0.77735 -2.5117,3.2539 -5.2344,5.15625 -7.9219,5.51953 -2.3007,0.3125 -4.0117,-0.625 -5.0429,-1.46094 -0.9453,-0.76953 -1.7383,-1.75781 -2.3555,-2.87109 2.5469,0.0547 4.8828,-0.69141 7.9023,-3.52344 3.4688,-3.25781 4.9961,-7.41406 4.086,-11.10938 -1.1367,-4.60937 -6.0547,-7.5664 -10.75,-6.44531 -3.5352,0.83984 -6.6524,3.78516 -8.3555,7.86328 -1.9844,4.78516 -1.75,10.34766 0.2969,14.99219 0.9726,2.21094 2.3594,4.21094 4.1094,5.81641 0.2343,0.22265 0.4687,0.42968 0.7148,0.6289 2.4688,2.00391 7.3359,3.21094 10.3125,2.94141 2.3906,-0.21875 5.5977,-1.33203 8.9649,-4.34375 1.3945,-1.2461 2.8203,-2.81641 4.2265,-4.78125 z m 0,0"
         id="path865" />
      <path
         style="fill:#19aeae;fill-opacity:1;fill-rule:nonzero;stroke:none"
         d="m 1623.3281,525.34375 c -0.3906,0 -0.7773,-0.0273 -1.1679,-0.082 -3.3243,-0.47266 -6.2461,-2.99219 -7.6289,-6.57813 -1.0586,-2.75781 -1.0938,-5.54687 -1.125,-8.00781 -0.043,-3.17969 0.055,-15.45703 0.012,-18.5625 l 6.8906,-0.0898 c 0.043,3.17968 -0.051,15.45312 -0.012,18.5625 0.027,1.97656 0.055,4.01953 0.6679,5.62109 0.4532,1.17969 1.3672,2.11719 2.168,2.23047 0.8672,0.12109 2.0508,-0.64063 2.75,-1.77734 0.9453,-1.53907 1.2774,-3.67969 1.5352,-5.74219 1.1601,-9.21094 2.289,-23.78906 2.3008,-23.9375 l 6.875,0.53515 c -0.012,0.14454 -1.1602,14.88672 -2.336,24.26172 -0.3359,2.6875 -0.8359,5.78125 -2.5039,8.49219 -1.9531,3.17188 -5.1641,5.07422 -8.4258,5.07422"
         id="path867" />
      <path
         style="fill:#19aeae;fill-opacity:1;fill-rule:nonzero;stroke:none"
         d="m 1671.6133,522.04687 c -1.7774,1.5586 -4.2774,2.41797 -7.0274,2.41797 -2.7851,0 -5.5,-0.91015 -7.6406,-2.55859 -1.3281,-1.01953 -2.3945,-2.33984 -3.1953,-3.92578 -0.078,-0.13672 -0.1445,-0.27735 -0.207,-0.42188 -0.09,0.13282 -0.1875,0.25391 -0.2774,0.37891 -3.0664,4.03906 -6.0156,6.52734 -11.7304,6.21875 -7.4493,-0.40625 -11.0664,-6.80469 -12.0743,-10.64844 l 5.3204,-6.24609 c -0.5391,4.33594 0.3867,6.13281 1.9843,7.91406 1.1875,1.31641 2.7227,2.0625 4.461,2.01172 4,-0.12109 6.9179,-4.08594 7.5586,-5.18359 1.8086,-3.06641 2.0976,-7.01563 0.7461,-10.05469 -1.0469,-2.35938 -4.668,-4.94922 -6.2852,-5.94922 l 3.5,-6.09375 c 1.3242,0.80859 5.4531,3.46875 7.9609,7.03125 l 0.2696,0.39453 c 0.062,-0.14844 0.1367,-0.28516 0.2148,-0.42187 1.4883,-2.89454 3.3477,-5.58204 5.2852,-8.33204 3.0586,2.27344 3.8867,6.45704 1.9101,9.8125 -2.2422,3.79688 -3.2812,7.04297 -3.3711,10.55469 -0.055,2.07813 0.1563,5.81641 2.211,7.40235 0.8476,0.64453 1.9922,1.01171 3.2265,1.01171 0.9649,0 1.875,-0.22656 2.5625,-0.6289 4.418,-2.58985 7.2461,-9.94922 7.5196,-13.17578 0,0 0.094,-1.44141 0.2851,-1.70313 0.5313,-0.72656 1.2852,-0.0195 1.4531,0.4336 1.3164,3.5625 3.4883,12.625 -4.6601,19.76171"
         id="path869" />
      <path
         style="fill:#19aeae;fill-opacity:1;fill-rule:nonzero;stroke:none"
         d="m 1547.2227,486.74219 c -0.4102,-0.0937 -0.75,-0.49219 -0.7461,-0.96485 0.01,-0.53125 0.4257,-0.84375 0.8086,-1.03515 0.6992,-0.34375 9.1718,-2.47657 10.2812,-2.16407 0.6953,0.19532 1.3984,0.78516 1.5039,1.64063 0.098,0.8125 -0.4531,1.63281 -1.0469,2.04687 -1.5586,1.07813 -7.4336,0.875 -8.3242,0.83594 -0.8476,-0.0351 -1.6484,-0.17187 -2.4765,-0.35937"
         id="path871" />
      <path
         style="fill:#19aeae;fill-opacity:1;fill-rule:nonzero;stroke:none"
         d="m 1487.957,493.22266 c -0.3867,-0.0899 -0.7148,-0.48829 -0.707,-0.96094 0,-0.53125 0.4063,-0.84375 0.7695,-1.03516 0.6641,-0.34375 8.7266,-2.47656 9.7852,-2.16406 0.6601,0.19531 1.3281,0.78125 1.4297,1.64062 0.094,0.8125 -0.3906,1.69532 -0.9961,2.04297 -0.668,0.38672 -1.2852,0.625 -2.0274,0.66407 -0.3906,0.0195 -7.4648,0.004 -8.2539,-0.1875"
         id="path873" />
      <path
         style="fill:#19aeae;fill-opacity:1;fill-rule:nonzero;stroke:none"
         d="m 1547.8164,528.625 c 12.8594,0.46875 25.5313,2.33203 38.2422,3.76562 25.043,3.01172 55.8945,3.07032 84.668,-0.71484 l -2.9922,9.15234 c -16.0156,3.16407 -57.125,1.15235 -82.4844,-2.88281 -19.6445,-2.66015 -24.7109,-4.8789 -38.7695,-5.14453 -16.9024,-0.32422 -30.7383,5.42188 -34.6016,7.20313 -0.6406,0.29296 -1.3945,0.10937 -1.832,-0.44532 -0.5352,-0.6875 -0.3946,-1.67578 0.3125,-2.1875 7.2226,-5.1875 25.3398,-9.21484 37.457,-8.74609"
         id="path875" />
      <path
         style="fill:#19aeae;fill-opacity:1;fill-rule:nonzero;stroke:none"
         d="m 1731.625,459.33203 c -3.1836,2.55859 -7.5469,4.81641 -9.9062,5.38281 0,0 2.0898,-5.1875 4.9414,-9.09375 2.3984,-3.28125 6.2031,-4.98047 8.0312,-3.28515 1.5274,1.42187 0.016,4.51953 -3.0664,6.99609"
         id="path877" />
      <path
         style="fill:#19aeae;fill-opacity:1;fill-rule:nonzero;stroke:none"
         d="m 1722.0586,451.47656 c 0,0 0.3359,-6.5 1.9102,-11.98047 1.3242,-4.60547 4.664,-8.16797 7.1562,-7.1914 2.082,0.8164 1.6094,4.8164 -0.707,8.875 -2.3946,4.19531 -6.1133,8.60937 -8.3594,10.29687"
         id="path879" />
      <path
         style="fill:#19aeae;fill-opacity:1;fill-rule:nonzero;stroke:none"
         d="m 1712.1445,451.06641 c -0.9922,-3.83985 -0.1015,-7.77344 2.0938,-8.125 1.8359,-0.29297 3.1875,2.7539 3.2344,6.61718 0.051,3.98828 -0.75,8.69141 -1.6485,10.83594 0,0 -2.5,-4.76562 -3.6797,-9.32812"
         id="path881" />
      <path
         style="fill:#19aeae;fill-opacity:1;fill-rule:nonzero;stroke:none"
         d="m 1709.8828,512.21094 -7.2539,16.03906 c -0.2031,0.46094 -0.9062,0.33203 -0.9297,-0.17188 -0.1914,-5.10937 4.0391,-18.38281 6.1016,-19.59375 1.1289,-0.66796 4.1758,-0.60937 2.082,3.72657 m 4.3477,-13.85938 7.7031,-26.52344 c -0.5898,-1.79687 -1.8672,-3.17578 -3.6836,-3.98437 -2.3164,-1.03125 -4.8047,-0.86719 -6.1445,-0.27344 l -11.9844,26.30078 -9.3516,2.90235 -15.2265,45.1289 25.1289,9.39453 c 0,0 19.6719,-44.18359 19.8047,-44.49609 l 0.074,-0.18359 -0.1172,-0.16797 c -1.5859,-2.05469 -5.543,-7.20703 -6.2031,-8.09766"
         id="path883" />
      <path
         style="fill:#19aeae;fill-opacity:1;fill-rule:nonzero;stroke:none"
         d="m 1501.8359,529.73828 c -1.3867,-0.35937 -16.0586,-1.10547 -17,-0.61328 -0.5937,0.30859 -1.1484,1.03516 -0.289,2.30859 1.9023,2.82422 9.457,4.03125 9.457,4.03125 0,0 -1.5391,5.09766 -6.9062,4.83594 -3.7657,-0.1875 -9.5039,-6.25 -11.2188,-16.03516 -1.3633,-7.78125 -1.6484,-16.1914 1.0117,-23.625 3.7852,-10.58203 8.1836,-16.01171 11.9219,-16.68359 3.7383,-0.67187 4.707,1.15234 5.9609,-0.38281 1.0743,-1.32031 -0.6289,-2.58203 -1.9101,-3.2461 -1.6797,-1.07812 -11.4258,-4.09765 -12.4531,-3.99609 -2.0157,0.20313 -5.3399,4.16797 -8.9493,10.17969 -3.6757,6.12109 -6.0195,13.28125 -6.8398,20.28515 -0.8945,7.66407 -1.0781,15.92188 1.8086,23.10938 5.0976,12.71094 13.2773,20.07031 21.9219,19.71484 12.9023,-0.53515 17.2226,-18.91406 13.4843,-19.88281"
         id="path885" />
      <path
         style="fill:#35458f;fill-opacity:1;fill-rule:nonzero;stroke:none"
         d="m 1530.2656,478.03125 c -9.8984,-1.08594 -12.1601,-13.98828 -12.8437,-22.39063 l -0.418,-5.15234 10.4453,1.17969 c 0,0 0.8906,13.21094 1.2227,15.17187 0.414,2.42578 4.6679,2.80469 6.0781,0.42969 0.8984,-1.51953 2.2852,-17.01953 2.2852,-17.01953 l 8.1289,-0.50781 c 0.4257,17.1875 -3.4453,28.29297 -14.8985,28.28906"
         id="path887" />
      <path
         style="fill:#35458f;fill-opacity:1;fill-rule:nonzero;stroke:none"
         d="m 1671.8555,478.92578 c 0,0 -14.2657,4.45703 -16.2422,4.45703 -1.543,0 -2.3203,-0.28906 -2.7735,-0.45703 -4.8867,-1.81641 -5.7929,-7.07422 -6.0937,-8.80078 -0.8828,-5.11719 -1.293,-22.80078 -1.918,-37.37109 -0.3476,-8.14844 -1.5273,-24.01563 -1.5273,-24.01563 13.3203,-2.62109 27.5742,0.78906 27.5742,0.78906 l -1.2109,10.28516 c 0,0 -10.0508,-2.37891 -15.1485,-1.62891 0.1953,3.73047 0.8594,19.20313 0.9766,21.875 2.3789,-0.51562 4.8359,-0.73437 7.25,-0.61328 l 5.1641,0.25 -0.504,10.32813 -5.1601,-0.25391 c -2.1172,-0.10156 -4.2656,0.19531 -6.25,0.85156 0.3867,7.53516 1.0078,18.10547 1.0391,18.25782 1.5351,-0.28907 14.5078,-4.21875 14.5078,-4.21875 z m 0,0"
         id="path889" />
      <path
         style="fill:#35458f;fill-opacity:1;fill-rule:nonzero;stroke:none"
         d="m 1687.0195,433.44531 v -14.8789 c 0,0 8.8282,-0.75 8.6719,5.63281 -0.7031,5.44922 -5.1445,6.77344 -8.6719,9.24609 m 11.0821,4.03906 c 0.2812,-0.32812 9.789,-11.21875 5.8593,-19.88281 -3.9023,-8.60937 -18.3945,-8.13281 -21.7734,-7.55469 -4.6914,0.80079 -5.4648,3.97657 -5.582,5.30079 -1.1914,13.85937 1.1562,74.30078 1.1562,74.30078 l 8.8867,-1.07032 -0.01,-47.70312 c 6.9453,6.16797 11.9492,19.08594 14.3907,27.32422 l 8.0585,-8.76172 c 0,0 -3.0078,-11.32422 -10.9882,-21.95313"
         id="path891" />
      <path
         style="fill:#35458f;fill-opacity:1;fill-rule:nonzero;stroke:none"
         d="m 1573.7031,443.59766 0.5586,-18.54688 c 1.0352,-3.02344 3.7266,-5.56641 6.7188,-3.76953 4.5859,2.76172 3.0039,8.04297 0.8008,12.48828 -2.0118,3.75 -4.9024,6.94141 -8.0782,9.82813 m 25.1367,31.32812 c -0.9023,-10.5625 -3.3437,-20.18359 -15.9921,-24.95312 2.3671,-2.39844 4.625,-5.03125 6.3632,-7.64063 4.3008,-6.48828 5.8086,-14.28125 4.0313,-20.85156 -1.2891,-4.76953 -4.5469,-8.82031 -8.7109,-10.83985 -3.336,-1.62109 -6.9336,-1.75781 -10.1407,-0.38671 -4.0078,1.71484 -8.0117,6.22265 -9.6133,11.44921 l 1.4493,60.61719 c 0.039,1.74219 2.2734,2.44141 3.3007,1.02735 5.9063,-8.10547 5.5352,-25.03907 5.5352,-25.03907 12.9766,1.74219 13.7773,10.79297 15.1563,19.71875 1.0742,6.95313 2.0156,9.69141 2.0156,9.69141 l 7.8164,-2.73047 c 0,0 -0.7578,-4.75 -1.211,-10.0625"
         id="path893" />
      <path
         style="fill:#35458f;fill-opacity:1;fill-rule:nonzero;stroke:none"
         d="m 1617.7891,482.45703 c -1.9805,0 -3.8985,-0.32812 -5.625,-1.12891 -3.2227,-1.5 -5.9141,-5.03515 -6.0469,-8.41015 -0.098,-2.4336 -5.4883,-59.75781 -5.4883,-59.75781 l 10.3008,-0.85938 c 0,0 4.5586,58.44922 5.6055,59.67578 1.3789,0.86719 8.039,-0.90625 13.789,-4.26953 l 4.461,-2.60937 5.2187,8.92578 -4.4609,2.60937 c -2.7188,1.58985 -10.6367,5.82422 -17.7539,5.82422"
         id="path895" />
      <path
         style="fill:#35458f;fill-opacity:1;fill-rule:nonzero;stroke:none"
         d="m 1593.8555,446.59375 c 2.7968,-5.52344 9.1367,-8.24219 10.4648,-8.57813 7.4414,-1.875 18.3164,-1.875 18.3164,-1.875 l 0.8711,10.21485 c 0,0 -13.332,0.90234 -17.3906,1.64453 -4.1016,0.74609 -9.1406,2.97266 -11.6328,3.01562 -1.3555,0.0234 -2.2696,-1.17968 -0.6289,-4.42187"
         id="path897" />
      <path
         style="fill:#35458f;fill-opacity:1;fill-rule:nonzero;stroke:none"
         d="m 1629.2852,460.04687 -0.8399,-30.99218 10.2617,-0.27735 0.836,30.99219 z m 0,0"
         id="path899" />
      <path
         style="fill:#35458f;fill-opacity:1;fill-rule:nonzero;stroke:none"
         d="m 1559.082,477.95703 -10.125,1.16406 c 3.2657,-16.84765 1.9766,-54.6875 -5.1953,-56.80078 -5.3672,-1.58594 -9.1054,11.08203 -11.1601,21.8086 l -0.9727,5.07421 -10.1523,-1.9375 0.9687,-5.07421 c 0.051,-0.26563 1.2695,-6.59375 3.7149,-13.21485 3.8242,-10.35547 8.5507,-15.8789 14.4492,-16.8789 3.75,-0.64063 7.2539,0.39843 10.1211,3 5.6953,5.16406 8.8593,16.85937 9.6718,35.76171 0.5625,13.10547 -1.3203,27.09766 -1.3203,27.09766"
         id="path901" />
      <path
         style="fill:#35458f;fill-opacity:1;fill-rule:nonzero;stroke:none"
         d="m 1543.7422,441.40625 c -4.5039,0 -8.9766,-0.58594 -13.375,-1.75781 l -4.9961,-1.33203 2.6641,-9.99219 4.9961,1.33203 c 5.6914,1.51562 11.5468,1.8125 17.4062,0.875 l 5.1016,-0.81641 1.6328,10.20703 -5.1016,0.82032 c -2.7812,0.4414 -5.5586,0.66406 -8.3281,0.66406"
         id="path903" />
      <path
         style="fill:#35458f;fill-opacity:1;fill-rule:nonzero;stroke:none"
         d="m 1638.8164,423.33203 h -10.3398 l -0.6875,-11.03125 h 10.3359 z m 0,0"
         id="path905" />
      <path
         style="fill:#35458f;fill-opacity:1;fill-rule:nonzero;stroke:none"
         d="m 1498.4453,462.92578 c -1.2383,5.01563 -4.0469,11.91016 -9.2695,11.46875 -6.8945,-0.59375 -15.4922,-12.60547 -17.4922,-18.24609 -2.9219,-8.3711 -3.2539,-18.27735 2.1094,-25.52735 4.707,-5.93359 14.0117,-5.12109 18.2851,-1.27343 7.6914,6.91796 8.9805,22.97656 6.3672,33.57812 m 9.9336,-33.73047 c -1.3594,-3.14453 -3.1445,-6.32031 -5.4922,-9.07812 -11.1133,-12.03516 -30.2929,-10.53125 -39.957,2.57812 -7.8242,10.92188 -7.4141,25.85938 -2.6055,37.75391 3.4414,8.7539 9.5391,16.76953 17.4922,22.03515 7.7813,5.20313 18.625,5.28125 25.4766,-1.92187 3.8945,-3.96875 5.9375,-9.64844 7.2578,-14.79688 2.8242,-12.04687 2.6445,-24.94531 -2.1719,-36.57031"
         id="path907" />
      <path
         style="fill:#35458f;fill-opacity:1;fill-rule:nonzero;stroke:none"
         d="m 1515.4258,475.48828 c 0.6836,0.87891 1.5312,1.82422 2.4609,2.77344 0.6797,0.69922 0.6602,1.8125 -0.039,2.48828 -1.5938,1.125 -3.8399,0.71875 -5.5977,0.33594 -1.5586,-0.42969 -2.9336,-1.17188 -4.2109,-1.99219 -2.5352,-1.70703 -4.6485,-3.76172 -6.1875,-6.40234 -2.8164,-5.58985 4.4726,-10.08985 7.957,-5.35938 0,0 3.6602,5.75 5.6172,8.15625"
         id="path909" />
      <path
         style="fill:#35458f;fill-opacity:1;fill-rule:nonzero;stroke:none"
         d="m 1456.5313,422.91016 c -0.4454,0.88281 -0.836,1.79296 -1.168,2.71484 l -5.6016,-0.91016 -0.414,-4.47265 z m 0,0"
         id="path911" />
      <path
         style="fill:#35458f;fill-opacity:1;fill-rule:nonzero;stroke:none"
         d="m 1461.6719,415.64844 c -0.7656,0.7539 -1.4805,1.58984 -2.1328,2.49218 l -6.5977,-4.25 3.3594,-3.98437 z m 0,0"
         id="path913" />
      <path
         style="fill:#35458f;fill-opacity:1;fill-rule:nonzero;stroke:none"
         d="m 1468.9063,411.42187 c -0.9922,0.46485 -1.9415,1.01954 -2.8555,1.66016 l -2.2578,-7.44531 4.2265,-0.082 z m 0,0"
         id="path915" />
    </g>
  </g>
</svg>
