<?xml version="1.0" encoding="UTF-8" standalone="no"?>
<!-- Created with Inkscape (http://www.inkscape.org/) -->

<svg
   width="78.341469mm"
   height="78.341469mm"
   viewBox="0 0 78.341469 78.341469"
   version="1.1"
   id="svg1770"
   xmlns="http://www.w3.org/2000/svg"
   xmlns:svg="http://www.w3.org/2000/svg">
  <defs
     id="defs1767" />
  <g
     id="layer1"
     transform="translate(-157.86543,-142.99477)">
    <g
       id="g1481"
       transform="matrix(0.35277777,0,0,0.35277777,-364.69906,-126.47508)">
      <path
         style="fill:#35458f;fill-opacity:1;fill-rule:nonzero;stroke:none"
         d="m 1703.3555,874.88672 c 0,61.32031 -49.711,111.03515 -111.0352,111.03515 -61.3203,0 -111.0351,-49.71484 -111.0351,-111.03515 0,-61.32422 49.7148,-111.03516 111.0351,-111.03516 61.3242,0 111.0352,49.71094 111.0352,111.03516"
         id="path835" />
      <path
         style="fill:#ffffff;fill-opacity:1;fill-rule:nonzero;stroke:none"
         d="m 1647.2305,892.27734 c -1.7891,-0.37109 -20.5117,-0.42578 -21.6797,0.25782 -0.7344,0.42968 -1.3985,1.38671 -0.2266,2.96093 2.5938,3.47657 12.2852,4.55078 12.2852,4.55078 0,0 -1.6485,6.58204 -8.4961,6.57422 -4.8047,-0.004 -12.4766,-7.36718 -15.2617,-19.72265 -2.211,-9.82032 -3.0899,-20.50782 -0.1602,-30.13282 4.1719,-13.70312 9.4375,-20.88281 14.1563,-21.96875 2.0429,-0.46875 4.1015,-0.25781 6.1289,0.17579 2.9257,0.62109 10.5039,5.13281 12.2422,1.99218 1.5351,-2.76953 -4.8438,-9.3125 -7.1563,-10.85547 -2.1133,-1.41015 -12.5977,-7.55468 -22.375,-0.5 -2.0937,1.50782 -6.5469,5.62891 -10.7734,13.50391 -4.3008,8.01172 -6.8516,17.27344 -7.461,26.23828 -0.6718,9.8125 -0.3984,20.33594 3.7149,29.3086 7.2695,15.86718 18.1289,24.73437 29.1133,23.75 16.3867,-1.46875 20.7656,-25.125 15.9492,-26.13282"
         id="path837" />
      <path
         style="fill:#ffffff;fill-opacity:1;fill-rule:nonzero;stroke:none"
         d="m 1665.2383,830.54687 c -1.0313,-0.98828 -3.2266,-0.043 -4.625,1.82032 -1.668,2.21484 -2.9024,5.17187 -2.9024,5.17187 1.3555,-0.30469 3.875,-1.5664 5.7188,-3.00781 1.7851,-1.39453 2.6758,-3.16016 1.8086,-3.98438"
         id="path839" />
      <path
         style="fill:#ffffff;fill-opacity:1;fill-rule:nonzero;stroke:none"
         d="m 1662.875,824.11719 c 1.3594,-2.3086 1.6602,-4.59766 0.4727,-5.08203 -1.418,-0.57813 -3.3594,1.4375 -4.1563,4.07031 -0.9453,3.1289 -1.1836,6.84765 -1.1836,6.84765 1.3008,-0.94921 3.4649,-3.44921 4.8672,-5.83593"
         id="path841" />
      <path
         style="fill:#ffffff;fill-opacity:1;fill-rule:nonzero;stroke:none"
         d="m 1654.3633,835.01953 c 0.5312,-1.22266 1.0273,-3.91016 1.0312,-6.19922 0,-2.21484 -0.75,-3.96875 -1.8047,-3.8164 -1.2617,0.18359 -1.8007,2.43359 -1.2617,4.64062 0.6407,2.625 2.0352,5.375 2.0352,5.375"
         id="path843" />
      <path
         style="fill:#ffffff;fill-opacity:1;fill-rule:nonzero;stroke:none"
         d="m 1650.5625,864.67187 -4.2734,9.13672 c -0.125,0.26563 -0.5274,0.1836 -0.5352,-0.10547 -0.07,-2.92968 2.457,-10.5039 3.6445,-11.18359 0.6524,-0.375 2.3985,-0.31641 1.1641,2.15234 m 7.2148,-23.05468 c -0.3242,-1.03516 -1.0429,-1.83203 -2.0781,-2.3125 -1.3203,-0.60547 -2.75,-0.53125 -3.5195,-0.20313 l -0.07,0.0312 -7,14.95313 -5.3828,1.58984 -9.0039,25.56641 -0.066,0.18359 14.332,5.57813 0.082,-0.16016 c 3.9219,-7.45313 11.5313,-25.01563 11.6055,-25.19141 l 0.047,-0.10937 -0.07,-0.0898 c -0.8867,-1.1914 -3.1171,-4.17968 -3.4921,-4.6914 l 4.6367,-15.08594 z m 0,0"
         id="path845" />
      <path
         style="fill:#ffffff;fill-opacity:1;fill-rule:nonzero;stroke:none"
         d="m 1595.9414,907.02344 c 0.8516,1.08984 1.8984,2.26172 3.0469,3.43359 0.8398,0.86328 0.8164,2.24609 -0.047,3.08594 -1.9687,1.38672 -4.7539,0.88672 -6.9297,0.41015 -1.9258,-0.52734 -3.6289,-1.44921 -5.2109,-2.46484 -3.1367,-2.11328 -5.75,-4.65625 -7.6563,-7.92187 -3.4882,-6.91797 5.5352,-12.48829 9.8477,-6.63282 0,0 4.5312,7.11719 6.9492,10.08985"
         id="path847" />
      <path
         style="fill:#ffffff;fill-opacity:1;fill-rule:nonzero;stroke:none"
         d="m 1540.5703,922.01172 c 1.082,0.57812 2.1953,1.08203 3.3281,1.51562 l -1.2617,6.90625 -5.539,0.40235 z m 0,0"
         id="path849" />
      <path
         style="fill:#ffffff;fill-opacity:1;fill-rule:nonzero;stroke:none"
         d="m 1531.7148,915.47656 c 0.9102,0.96485 1.9258,1.8711 3.0274,2.69922 l -5.418,8.05859 -4.8476,-4.25 z m 0,0"
         id="path851" />
      <path
         style="fill:#ffffff;fill-opacity:1;fill-rule:nonzero;stroke:none"
         d="m 1526.332,906.57422 c 0.5743,1.22656 1.2578,2.40234 2.0508,3.53515 l -9.2109,2.79297 -0.1016,-5.23047 z m 0,0"
         id="path853" />
      <path
         style="fill:#ffffff;fill-opacity:1;fill-rule:nonzero;stroke:none"
         d="m 1574.9297,891.48047 c -1.5391,6.20703 -5.0078,14.73828 -11.4727,14.1914 -8.5312,-0.73437 -19.1757,-15.60156 -21.6484,-22.57812 -3.6172,-10.36328 -4.0273,-22.62109 2.6094,-31.59375 5.8242,-7.34375 17.3398,-6.33594 22.6289,-1.57813 9.5195,8.56641 11.1133,28.4375 7.8828,41.5586 m 12.2891,-41.7461 c -1.6797,-3.88671 -3.8907,-7.82031 -6.7969,-11.23046 -13.75,-14.89454 -37.4883,-13.03516 -49.4453,3.1875 -9.6797,13.51953 -9.1797,32.0039 -3.2227,46.72656 4.2539,10.83203 11.8008,20.75 21.6445,27.26562 9.6289,6.44141 23.0469,6.53516 31.5274,-2.3789 1.1758,-1.19141 2.207,-2.51563 3.1289,-3.91407 2.4062,-3.66796 4.0273,-7.91406 5.2109,-12.03515 0.2227,-0.79297 0.4453,-1.57813 0.6407,-2.36328 3.496,-14.91016 3.2734,-30.86719 -2.6875,-45.25782"
         id="path855" />
      <path
         style="fill:#ffffff;fill-opacity:1;fill-rule:nonzero;stroke:none"
         d="m 1674.6563,842.46484 c 21.8281,57.35547 -20.4141,119.26172 -81.8516,118.97657 -18.625,-0.0508 -37.1445,-6.34766 -51.8867,-17.6836 0,0 1.6836,-2.2539 1.6836,-2.2539 14.4336,10.57031 32.3242,16.21875 50.1797,15.85546 32.3906,-0.22265 62.9179,-21.24609 74.6875,-51.32812 7.7656,-19.25 7.7382,-41.58984 -0.1446,-60.67578 z m 0,0"
         id="path857" />
      <path
         style="fill:#ffffff;fill-opacity:1;fill-rule:nonzero;stroke:none"
         d="m 1510.7891,902.10937 c -24.3985,-72.92187 49.5351,-138.53125 119.3398,-106.875 8.8906,4.14454 17.1016,9.76172 24.2149,16.56641 l -5.5274,5.62109 c -6.3398,-6.34375 -13.7305,-11.65625 -21.8008,-15.64062 -42.9453,-21.22266 -95.8398,0.25 -112.3242,45.1875 -6.3945,17.19531 -6.9219,36.63672 -1.2344,54.24609 z m 0,0"
         id="path859" />
    </g>
  </g>
</svg>
